<mxfile host="app.diagrams.net" modified="2024-05-21T15:21:46.022Z" agent="Mozilla/5.0 (Windows NT 10.0; Win64; x64) AppleWebKit/537.36 (KHTML, like Gecko) Chrome/124.0.0.0 Safari/537.36" etag="VDynC9Vyml9Can8LSpkd" version="24.0.0" type="github">
  <diagram name="Page-1" id="s1s9fsVj2zggWOblq4CE">
    <mxGraphModel dx="2284" dy="866" grid="1" gridSize="10" guides="1" tooltips="1" connect="1" arrows="1" fold="1" page="1" pageScale="1" pageWidth="850" pageHeight="1100" math="0" shadow="0">
      <root>
        <mxCell id="0" />
        <mxCell id="1" parent="0" />
        <mxCell id="pc7zykWJ4Y4vEivLb4tc-5" value="" style="edgeStyle=orthogonalEdgeStyle;rounded=0;orthogonalLoop=1;jettySize=auto;html=1;" edge="1" parent="1" target="pc7zykWJ4Y4vEivLb4tc-4">
          <mxGeometry relative="1" as="geometry">
            <mxPoint x="200" y="310" as="sourcePoint" />
          </mxGeometry>
        </mxCell>
        <mxCell id="pc7zykWJ4Y4vEivLb4tc-1" value="standardize address" style="rounded=0;whiteSpace=wrap;html=1;" vertex="1" parent="1">
          <mxGeometry x="114" y="280" width="130" height="60" as="geometry" />
        </mxCell>
        <mxCell id="pc7zykWJ4Y4vEivLb4tc-7" value="" style="edgeStyle=orthogonalEdgeStyle;rounded=0;orthogonalLoop=1;jettySize=auto;html=1;" edge="1" parent="1" source="pc7zykWJ4Y4vEivLb4tc-4" target="pc7zykWJ4Y4vEivLb4tc-6">
          <mxGeometry relative="1" as="geometry" />
        </mxCell>
        <mxCell id="pc7zykWJ4Y4vEivLb4tc-4" value="Enrich data&lt;div&gt;(adding ext id and missing data&lt;/div&gt;" style="whiteSpace=wrap;html=1;rounded=0;" vertex="1" parent="1">
          <mxGeometry x="329" y="280" width="120" height="60" as="geometry" />
        </mxCell>
        <mxCell id="pc7zykWJ4Y4vEivLb4tc-9" value="" style="edgeStyle=orthogonalEdgeStyle;rounded=0;orthogonalLoop=1;jettySize=auto;html=1;" edge="1" parent="1" source="pc7zykWJ4Y4vEivLb4tc-6" target="pc7zykWJ4Y4vEivLb4tc-8">
          <mxGeometry relative="1" as="geometry" />
        </mxCell>
        <mxCell id="pc7zykWJ4Y4vEivLb4tc-6" value="generate json for NPI&amp;nbsp;" style="whiteSpace=wrap;html=1;rounded=0;" vertex="1" parent="1">
          <mxGeometry x="529" y="280" width="120" height="60" as="geometry" />
        </mxCell>
        <mxCell id="pc7zykWJ4Y4vEivLb4tc-10" style="edgeStyle=orthogonalEdgeStyle;rounded=0;orthogonalLoop=1;jettySize=auto;html=1;" edge="1" parent="1" source="pc7zykWJ4Y4vEivLb4tc-8">
          <mxGeometry relative="1" as="geometry">
            <mxPoint x="430" y="440" as="targetPoint" />
            <Array as="points">
              <mxPoint x="869" y="310" />
              <mxPoint x="869" y="440" />
              <mxPoint x="851" y="440" />
            </Array>
          </mxGeometry>
        </mxCell>
        <mxCell id="pc7zykWJ4Y4vEivLb4tc-8" value="publish JSON to RMQ" style="whiteSpace=wrap;html=1;rounded=0;" vertex="1" parent="1">
          <mxGeometry x="729" y="280" width="120" height="60" as="geometry" />
        </mxCell>
        <mxCell id="pc7zykWJ4Y4vEivLb4tc-11" value="" style="shape=flexArrow;endArrow=classic;html=1;rounded=0;" edge="1" parent="1">
          <mxGeometry width="50" height="50" relative="1" as="geometry">
            <mxPoint x="40" y="309.5" as="sourcePoint" />
            <mxPoint x="110" y="309.5" as="targetPoint" />
          </mxGeometry>
        </mxCell>
        <mxCell id="pc7zykWJ4Y4vEivLb4tc-12" value="for 1 to n&lt;div&gt;n being rows of info within roster file&lt;/div&gt;" style="ellipse;whiteSpace=wrap;html=1;" vertex="1" parent="1">
          <mxGeometry x="-90" y="285" width="120" height="50" as="geometry" />
        </mxCell>
        <mxCell id="pc7zykWJ4Y4vEivLb4tc-14" style="edgeStyle=orthogonalEdgeStyle;rounded=0;orthogonalLoop=1;jettySize=auto;html=1;" edge="1" parent="1" source="pc7zykWJ4Y4vEivLb4tc-13">
          <mxGeometry relative="1" as="geometry">
            <mxPoint x="60" y="330" as="targetPoint" />
          </mxGeometry>
        </mxCell>
        <mxCell id="pc7zykWJ4Y4vEivLb4tc-13" value="n + 1 until end of file" style="text;strokeColor=none;align=center;fillColor=none;html=1;verticalAlign=middle;whiteSpace=wrap;rounded=0;" vertex="1" parent="1">
          <mxGeometry x="365" y="420" width="60" height="30" as="geometry" />
        </mxCell>
      </root>
    </mxGraphModel>
  </diagram>
</mxfile>
